<svg width="43" height="43" viewBox="0 0 43 43" fill="none" xmlns="http://www.w3.org/2000/svg">
<circle cx="21.9973" cy="21.0237" r="20.0026" stroke="#0087E9" stroke-opacity="0.3" stroke-width="2"/>
<path d="M20.2224 10.943C19.0231 10.9436 17.8407 11.2256 16.7702 11.7663C15.6997 12.307 14.7709 13.0912 14.0586 14.0561C13.3463 15.0209 12.8703 16.1394 12.6688 17.3216C12.4673 18.5039 12.546 19.7169 12.8985 20.8632C13.251 22.0095 13.8675 23.0571 14.6985 23.9219C15.5295 24.7866 16.5518 25.4443 17.6831 25.8422C18.8145 26.24 20.0234 26.3669 21.2128 26.2126C22.4021 26.0583 23.5386 25.6272 24.5311 24.9538L29.2691 29.688C29.4007 29.8292 29.5594 29.9425 29.7357 30.0211C29.912 30.0996 30.1024 30.1419 30.2954 30.1453C30.4884 30.1487 30.6801 30.1132 30.8591 30.0409C31.0381 29.9686 31.2007 29.861 31.3372 29.7245C31.4737 29.588 31.5813 29.4254 31.6536 29.2464C31.7259 29.0674 31.7614 28.8757 31.758 28.6827C31.7546 28.4896 31.7124 28.2993 31.6338 28.123C31.5552 27.9466 31.4419 27.7879 31.3007 27.6563L26.5666 22.9183C27.3498 21.7656 27.804 20.4212 27.8803 19.0297C27.9567 17.6381 27.6523 16.2521 26.9999 15.0206C26.3475 13.7891 25.3717 12.7588 24.1776 12.0403C22.9834 11.3219 21.616 10.9425 20.2224 10.943ZM15.4307 18.6097C15.4307 17.3388 15.9356 16.1201 16.8342 15.2214C17.7328 14.3228 18.9516 13.818 20.2224 13.818C21.4932 13.818 22.712 14.3228 23.6106 15.2214C24.5092 16.1201 25.0141 17.3388 25.0141 18.6097C25.0141 19.8805 24.5092 21.0993 23.6106 21.9979C22.712 22.8965 21.4932 23.4013 20.2224 23.4013C18.9516 23.4013 17.7328 22.8965 16.8342 21.9979C15.9356 21.0993 15.4307 19.8805 15.4307 18.6097Z" fill="#0087E9" fill-opacity="0.7"/>
</svg>
