<svg width="117" height="30" viewBox="0 0 117 30" fill="none" xmlns="http://www.w3.org/2000/svg">
<g opacity="0.47">
<g opacity="0.83">
<rect y="0.355469" width="14.1005" height="14.1005" fill="#22A2FF"/>
<rect x="15.6413" y="0.912556" width="12.9863" height="12.9863" fill="white" stroke="#22A2FF" stroke-width="1.11418"/>
<rect x="15.0842" y="15.4399" width="14.1005" height="14.1005" fill="#22A2FF"/>
<rect x="0.557088" y="15.997" width="12.9863" height="12.9863" fill="white" stroke="#22A2FF" stroke-width="1.11418"/>
<path d="M4.72751 9.97153C4.43629 9.6596 4.72263 9.0351 5.34811 8.25231M4.72751 9.97153C5.03553 10.3014 5.69296 9.97639 6.50065 9.30115M4.72751 9.97153C4.10691 9.70565 2.88345 9.70565 2.95437 11.8327C3.66363 10.9464 4.37288 11.6554 4.72751 11.2123C5.08215 10.7692 5.08214 10.326 4.72751 9.97153ZM5.34811 8.25231C6.85522 6.36614 10.3313 3.56094 12.4407 1.99512C12.774 1.99512 8.9477 7.25538 6.50065 9.30115M5.34811 8.25231C5.34811 8.6148 5.57862 9.33206 6.50065 9.30115" stroke="white" stroke-width="0.880557"/>
<path d="M26.7769 7.24162C26.7769 9.71503 24.7718 11.7201 22.2984 11.7201C19.825 11.7201 17.8199 9.71503 17.8199 7.24162C17.8199 4.7682 19.825 2.76311 22.2984 2.76311C24.7718 2.76311 26.7769 4.7682 26.7769 7.24162Z" stroke="#22A2FF" stroke-width="0.880557"/>
<path d="M4.50195 17.0793H10.166V25.2922H4.50195V17.879V17.0793Z" fill="#22A2FF"/>
<path d="M4.50195 17.879V17.0793L3.93555 17.6458L4.50195 17.879Z" fill="#22A2FF"/>
<path d="M9.88232 17.3625H4.64307V25.1506L10.0239 25.5754L9.88232 17.3625Z" fill="white"/>
<g filter="url(#filter0_d_125:110)">
<path d="M9.59912 18.0706L4.50146 17.3625V25.1506L9.74072 26.2834L9.59912 18.0706Z" fill="white"/>
</g>
<g filter="url(#filter1_d_125:110)">
<path d="M9.17431 18.6367L4.35986 17.5039V25.292L9.31591 26.8496L9.17431 18.6367Z" fill="white"/>
</g>
<path d="M3.93506 17.6455L8.74951 19.4863V27.6992L3.93506 25.8584V17.6455Z" fill="#22A2FF"/>
<circle cx="22.2987" cy="21.9981" r="0.435699" stroke="white" stroke-width="0.440279"/>
<path d="M23.718 21.9981C23.718 23.2474 23.5368 24.3689 23.2506 25.1703C23.1071 25.5719 22.9415 25.8813 22.7685 26.0862C22.5947 26.292 22.435 26.3688 22.2985 26.3688C22.1621 26.3688 22.0023 26.292 21.8285 26.0862C21.6556 25.8813 21.4899 25.5719 21.3465 25.1703C21.0603 24.3689 20.8791 23.2474 20.8791 21.9981C20.8791 20.7488 21.0603 19.6272 21.3465 18.8259C21.4899 18.4243 21.6556 18.1148 21.8285 17.91C22.0023 17.7042 22.1621 17.6274 22.2985 17.6274C22.435 17.6274 22.5947 17.7042 22.7685 17.91C22.9415 18.1148 23.1071 18.4243 23.2506 18.8259C23.5368 19.6272 23.718 20.7488 23.718 21.9981Z" stroke="white" stroke-width="0.440279"/>
<path d="M23.0083 20.7688C24.0902 21.3934 24.9709 22.1111 25.5218 22.7596C25.7979 23.0847 25.983 23.3829 26.0739 23.635C26.1653 23.8885 26.1519 24.0652 26.0837 24.1834C26.0155 24.3016 25.8691 24.4015 25.6039 24.4491C25.3401 24.4965 24.9893 24.4852 24.5697 24.4086C23.7326 24.2558 22.6708 23.852 21.5888 23.2273C20.5069 22.6027 19.6262 21.885 19.0753 21.2365C18.7992 20.9114 18.6141 20.6132 18.5232 20.3611C18.4318 20.1076 18.4452 19.9309 18.5134 19.8127C18.5816 19.6945 18.728 19.5946 18.9932 19.547C19.257 19.4996 19.6078 19.5109 20.0274 19.5875C20.8645 19.7403 21.9263 20.1441 23.0083 20.7688Z" stroke="white" stroke-width="0.440279"/>
<path d="M21.5889 20.769C22.6708 20.1443 23.7327 19.7405 24.5698 19.5877C24.9893 19.5111 25.3401 19.4998 25.604 19.5472C25.8691 19.5948 26.0155 19.6947 26.0837 19.8129C26.152 19.9311 26.1653 20.1078 26.074 20.3613C25.9831 20.6134 25.7979 20.9116 25.5218 21.2367C24.9709 21.8852 24.0903 22.6029 23.0083 23.2275C21.9264 23.8522 20.8645 24.256 20.0274 24.4089C19.6079 24.4854 19.2571 24.4967 18.9932 24.4493C18.7281 24.4017 18.5817 24.3018 18.5134 24.1836C18.4452 24.0655 18.4319 23.8887 18.5232 23.6353C18.6141 23.3831 18.7993 23.0849 19.0754 22.7598C19.6262 22.1113 20.5069 21.3936 21.5889 20.769Z" stroke="white" stroke-width="0.440279"/>
</g>
<path d="M41.7782 21.2339V20.9231L43.0213 20.2821L47.9938 8.31708H48.8679L53.7627 20.2239L55.064 20.9231V21.2339H50.247V20.9231L51.9562 20.2627L50.4995 16.6693H45.7795L44.3421 20.2627L45.9737 20.9231V21.2339H41.7782ZM46.2262 15.601H50.0721L48.1492 10.8227L46.2262 15.601ZM58.1368 21.2339V20.9231L59.8655 20.2821V11.3278H56.8743L55.9225 13.6003H55.6117V10.3566H65.7898V13.6003H65.479L64.5078 11.3278H61.5165V20.2821L63.2647 20.9231V21.2339H58.1368ZM67.9314 21.2339V20.9231L69.3299 20.2821V11.3083L67.9314 10.6674V10.3566H72.2435C73.4477 10.3566 74.393 10.6026 75.0793 11.0947C75.7786 11.5867 76.1282 12.2601 76.1282 13.1148C76.1282 13.7493 75.9275 14.2931 75.5261 14.7463C75.1376 15.1996 74.5937 15.5557 73.8945 15.8147L76.9052 20.3404L78.1871 20.9231V21.2339H75.429L72.2823 16.2808H70.9615V20.2627L72.2435 20.9231V21.2339H67.9314ZM71.9715 11.3278H70.9615V15.3096H72.0686C72.7679 15.3096 73.3247 15.1348 73.7391 14.7852C74.1664 14.4226 74.3801 13.9305 74.3801 13.309C74.3801 12.6486 74.1664 12.1565 73.7391 11.8328C73.3247 11.4961 72.7355 11.3278 71.9715 11.3278ZM79.4476 21.2339V20.9231L80.7295 20.2821V11.3083L79.4476 10.6674V10.3566H83.7014V10.6674L82.3805 11.3083V20.2821L83.7014 20.9231V21.2339H79.4476ZM92.2745 21.4281C91.4069 21.4281 90.63 21.2857 89.9437 21.0008C89.2574 20.703 88.7135 20.2368 88.3121 19.6023C87.9236 18.9548 87.7294 18.1131 87.7294 17.0772V11.3083L86.3309 10.6674V10.3566H90.7789V10.6674L89.3804 11.3083V16.9412C89.3804 18.2232 89.6653 19.1232 90.235 19.6411C90.8048 20.1462 91.5753 20.3987 92.5465 20.3987C93.1162 20.3987 93.6342 20.2886 94.1004 20.0685C94.5665 19.8483 94.9356 19.5181 95.2075 19.0778C95.4924 18.6246 95.6348 18.0484 95.6348 17.3491V11.2695L93.9644 10.6674V10.3566H98.1211V10.6674L96.742 11.2889V17.0772C96.742 18.1131 96.5478 18.9548 96.1593 19.6023C95.7708 20.2368 95.2399 20.703 94.5665 21.0008C93.9061 21.2857 93.1421 21.4281 92.2745 21.4281ZM100.555 21.2339V20.9231L101.934 20.2821L102.303 11.3083L100.807 10.6674V10.3566H104.284L107.975 18.5923L111.821 10.3566H115.123V10.6674L113.685 11.2112L113.957 20.2821L115.2 20.9231V21.2339H110.986V20.9231L112.268 20.3015L112.093 12.1824L107.839 21.3116H107.334L103.274 12.1824L103.08 20.3015L104.498 20.9231V21.2339H100.555Z" fill="#22A2FF"/>
</g>
<defs>
<filter id="filter0_d_125:110" x="4.50146" y="17.3625" width="5.37134" height="8.9209" filterUnits="userSpaceOnUse" color-interpolation-filters="sRGB">
<feFlood flood-opacity="0" result="BackgroundImageFix"/>
<feColorMatrix in="SourceAlpha" type="matrix" values="0 0 0 0 0 0 0 0 0 0 0 0 0 0 0 0 0 0 127 0" result="hardAlpha"/>
<feOffset dx="0.132084"/>
<feColorMatrix type="matrix" values="0 0 0 0 0 0 0 0 0 0 0 0 0 0 0 0 0 0 0.25 0"/>
<feBlend mode="normal" in2="BackgroundImageFix" result="effect1_dropShadow_125:110"/>
<feBlend mode="normal" in="SourceGraphic" in2="effect1_dropShadow_125:110" result="shape"/>
</filter>
<filter id="filter1_d_125:110" x="4.35986" y="17.5039" width="5.08814" height="9.3457" filterUnits="userSpaceOnUse" color-interpolation-filters="sRGB">
<feFlood flood-opacity="0" result="BackgroundImageFix"/>
<feColorMatrix in="SourceAlpha" type="matrix" values="0 0 0 0 0 0 0 0 0 0 0 0 0 0 0 0 0 0 127 0" result="hardAlpha"/>
<feOffset dx="0.132084"/>
<feColorMatrix type="matrix" values="0 0 0 0 0 0 0 0 0 0 0 0 0 0 0 0 0 0 0.25 0"/>
<feBlend mode="normal" in2="BackgroundImageFix" result="effect1_dropShadow_125:110"/>
<feBlend mode="normal" in="SourceGraphic" in2="effect1_dropShadow_125:110" result="shape"/>
</filter>
</defs>
</svg>
