<svg width="100" height="89" viewBox="0 0 100 89" fill="none" xmlns="http://www.w3.org/2000/svg">
<rect x="22.2762" y="0.0237122" width="25.8623" height="25.8623" fill="#0087E9"/>
<rect x="50.704" y="0.78473" width="24.3403" height="24.3403" fill="white" stroke="#0087E9" stroke-width="1.52204"/>
<rect x="49.943" y="27.6904" width="25.8623" height="25.8623" fill="#0087E9"/>
<rect x="23.0373" y="28.4514" width="24.3403" height="24.3403" fill="white" stroke="#0087E9" stroke-width="1.52204"/>
<path d="M30.9469 17.6608C30.4128 17.0887 30.938 15.9433 32.0852 14.5075M30.9469 17.6608C31.5119 18.2659 32.7177 17.6697 34.1991 16.4312M30.9469 17.6608C29.8087 17.1731 27.5647 17.1731 27.6948 21.0744C28.9956 19.4489 30.2965 20.7493 30.9469 19.9365C31.5974 19.1238 31.5974 18.311 30.9469 17.6608ZM32.0852 14.5075C34.8495 11.048 41.2251 5.90289 45.0939 3.03094C45.7052 3.03094 38.6874 12.679 34.1991 16.4312M32.0852 14.5075C32.0852 15.1724 32.508 16.4879 34.1991 16.4312" stroke="white" stroke-width="1.2029"/>
<path d="M71.5952 12.6541C71.5952 17.3045 67.8253 21.0744 63.1749 21.0744C58.5245 21.0744 54.7546 17.3045 54.7546 12.6541C54.7546 8.00373 58.5245 4.23384 63.1749 4.23384C67.8253 4.23384 71.5952 8.00373 71.5952 12.6541Z" stroke="#0087E9" stroke-width="1.2029"/>
<path d="M30.5325 30.6976H40.9212V45.7612H30.5325V32.1642V30.6976Z" fill="#0087E9"/>
<path d="M30.5325 32.1642V30.6976L29.4937 31.7365L30.5325 32.1642Z" fill="#0087E9"/>
<path d="M40.4019 31.2171H30.7924V45.5015L40.6616 46.2806L40.4019 31.2171Z" fill="white"/>
<g filter="url(#filter0_d_120:67)">
<path d="M39.8825 32.5157L30.5327 31.2171V45.5015L40.1422 47.5792L39.8825 32.5157Z" fill="white"/>
</g>
<g filter="url(#filter1_d_120:67)">
<path d="M39.1032 33.5545L30.2728 31.4768V45.7612L39.3629 48.6181L39.1032 33.5545Z" fill="white"/>
</g>
<path d="M29.4937 31.7365L38.324 35.1128V50.1764L29.4937 46.8001V31.7365Z" fill="#0087E9"/>
<circle cx="63.1749" cy="39.7193" r="0.902174" stroke="white" stroke-width="0.601449"/>
<path d="M65.8814 39.7193C65.8814 42.0194 65.5479 44.0887 65.0181 45.5722C64.7527 46.3153 64.4437 46.8954 64.1156 47.2839C63.7864 47.6738 63.4672 47.8389 63.1748 47.8389C62.8825 47.8389 62.5633 47.6738 62.2341 47.2839C61.906 46.8954 61.597 46.3153 61.3316 45.5722C60.8018 44.0887 60.4683 42.0194 60.4683 39.7193C60.4683 37.4193 60.8018 35.35 61.3316 33.8664C61.597 33.1233 61.906 32.5433 62.2341 32.1548C62.5633 31.7648 62.8825 31.5998 63.1748 31.5998C63.4672 31.5998 63.7864 31.7648 64.1156 32.1548C64.4437 32.5433 64.7527 33.1233 65.0181 33.8664C65.5479 35.35 65.8814 37.4193 65.8814 39.7193Z" stroke="white" stroke-width="0.601449"/>
<path d="M64.5281 37.3755C66.52 38.5255 68.1453 39.8489 69.1652 41.0495C69.6761 41.6509 70.0239 42.2085 70.1963 42.6869C70.3694 43.167 70.3528 43.526 70.2066 43.7792C70.0604 44.0324 69.7579 44.2262 69.2556 44.3164C68.755 44.4063 68.0982 44.3838 67.322 44.2421C65.7723 43.9592 63.8135 43.2133 61.8216 42.0633C59.8297 40.9133 58.2043 39.5899 57.1845 38.3892C56.6736 37.7878 56.3258 37.2302 56.1533 36.7518C55.9803 36.2717 55.9969 35.9128 56.1431 35.6596C56.2893 35.4064 56.5918 35.2125 57.0941 35.1224C57.5946 35.0325 58.2515 35.0549 59.0277 35.1966C60.5774 35.4796 62.5362 36.2254 64.5281 37.3755Z" stroke="white" stroke-width="0.601449"/>
<path d="M61.8215 37.3754C63.8134 36.2254 65.7722 35.4795 67.3219 35.1966C68.0982 35.0549 68.755 35.0325 69.2555 35.1223C69.7578 35.2125 70.0604 35.4064 70.2065 35.6596C70.3527 35.9128 70.3694 36.2717 70.1963 36.7518C70.0238 37.2302 69.676 37.7878 69.1652 38.3892C68.1453 39.5898 66.52 40.9132 64.5281 42.0633C62.5361 43.2133 60.5774 43.9592 59.0277 44.2421C58.2514 44.3838 57.5946 44.4062 57.0941 44.3164C56.5918 44.2262 56.2892 44.0323 56.143 43.7791C55.9969 43.5259 55.9802 43.167 56.1533 42.6869C56.3257 42.2085 56.6736 41.6509 57.1844 41.0495C58.2043 39.8489 59.8296 38.5255 61.8215 37.3754Z" stroke="white" stroke-width="0.601449"/>
<path d="M0.850642 75.5526V75.1402L2.50037 74.2896L9.09929 58.4109H10.2593L16.7551 74.2122L18.4821 75.1402V75.5526H12.0894V75.1402L14.3578 74.2638L12.4245 69.495H6.16071L4.25321 74.2638L6.41848 75.1402V75.5526H0.850642ZM6.75358 68.0773H11.8574L9.3055 61.7362L6.75358 68.0773ZM22.5599 75.5526V75.1402L24.8541 74.2896V62.4064H20.8844L19.6213 65.4223H19.2089V61.1175H32.7161V65.4223H32.3036L31.0148 62.4064H27.0451V74.2896L29.3651 75.1402V75.5526H22.5599ZM35.5582 75.5526V75.1402L37.4141 74.2896V62.3806L35.5582 61.5299V61.1175H41.2807C42.8789 61.1175 44.1333 61.444 45.0441 62.097C45.9721 62.7501 46.4361 63.6437 46.4361 64.7778C46.4361 65.6199 46.1697 66.3417 45.637 66.9431C45.1215 67.5446 44.3997 68.0172 43.4717 68.3609L47.4672 74.3669L49.1685 75.1402V75.5526H45.5081L41.3322 68.9795H39.5794V74.2638L41.2807 75.1402V75.5526H35.5582ZM40.9198 62.4064H39.5794V67.6907H41.0487C41.9767 67.6907 42.7156 67.4587 43.2655 66.9947C43.8326 66.5135 44.1162 65.8605 44.1162 65.0356C44.1162 64.1592 43.8326 63.5062 43.2655 63.0766C42.7156 62.6298 41.9337 62.4064 40.9198 62.4064ZM50.8411 75.5526V75.1402L52.5424 74.2896V62.3806L50.8411 61.5299V61.1175H56.4863V61.5299L54.7335 62.3806V74.2896L56.4863 75.1402V75.5526H50.8411ZM67.8636 75.8104C66.7123 75.8104 65.6812 75.6214 64.7704 75.2433C63.8596 74.8481 63.1379 74.2294 62.6051 73.3874C62.0896 72.5281 61.8318 71.4111 61.8318 70.0364V62.3806L59.9759 61.5299V61.1175H65.8788V61.5299L64.0229 62.3806V69.8559C64.0229 71.5572 64.4009 72.7515 65.1571 73.4389C65.9132 74.1091 66.9357 74.4442 68.2245 74.4442C68.9806 74.4442 69.668 74.2982 70.2867 74.006C70.9053 73.7139 71.3951 73.2757 71.756 72.6914C72.134 72.0899 72.3231 71.3252 72.3231 70.3972V62.329L70.1062 61.5299V61.1175H75.6225V61.5299L73.7924 62.3548V70.0364C73.7924 71.4111 73.5346 72.5281 73.019 73.3874C72.5035 74.2294 71.7989 74.8481 70.9053 75.2433C70.0289 75.6214 69.015 75.8104 67.8636 75.8104ZM78.8525 75.5526V75.1402L80.6827 74.2896L81.1724 62.3806L79.1876 61.5299V61.1175H83.8017L88.6993 72.047L93.8032 61.1175H98.1853V61.5299L96.2778 62.2517L96.6387 74.2896L98.2884 75.1402V75.5526H92.6948V75.1402L94.3961 74.3153L94.1641 63.5406L88.5189 75.6558H87.8487L82.4613 63.5406L82.2035 74.3153L84.0852 75.1402V75.5526H78.8525Z" fill="#0087E9"/>
<defs>
<filter id="filter0_d_120:67" x="30.5327" y="31.2171" width="9.78993" height="16.3622" filterUnits="userSpaceOnUse" color-interpolation-filters="sRGB">
<feFlood flood-opacity="0" result="BackgroundImageFix"/>
<feColorMatrix in="SourceAlpha" type="matrix" values="0 0 0 0 0 0 0 0 0 0 0 0 0 0 0 0 0 0 127 0" result="hardAlpha"/>
<feOffset dx="0.180435"/>
<feColorMatrix type="matrix" values="0 0 0 0 0 0 0 0 0 0 0 0 0 0 0 0 0 0 0.25 0"/>
<feBlend mode="normal" in2="BackgroundImageFix" result="effect1_dropShadow_120:67"/>
<feBlend mode="normal" in="SourceGraphic" in2="effect1_dropShadow_120:67" result="shape"/>
</filter>
<filter id="filter1_d_120:67" x="30.2728" y="31.4768" width="9.27052" height="17.1413" filterUnits="userSpaceOnUse" color-interpolation-filters="sRGB">
<feFlood flood-opacity="0" result="BackgroundImageFix"/>
<feColorMatrix in="SourceAlpha" type="matrix" values="0 0 0 0 0 0 0 0 0 0 0 0 0 0 0 0 0 0 127 0" result="hardAlpha"/>
<feOffset dx="0.180435"/>
<feColorMatrix type="matrix" values="0 0 0 0 0 0 0 0 0 0 0 0 0 0 0 0 0 0 0.25 0"/>
<feBlend mode="normal" in2="BackgroundImageFix" result="effect1_dropShadow_120:67"/>
<feBlend mode="normal" in="SourceGraphic" in2="effect1_dropShadow_120:67" result="shape"/>
</filter>
</defs>
</svg>
